<svg xmlns="http://www.w3.org/2000/svg" width="83.681" height="78.236" viewBox="0 0 83.681 78.236">
  <g id="The_Doctor_Explained" data-name="The Doctor Explained" transform="translate(-88.83 -198.915)">
    <g id="Objecct" transform="translate(88.83 198.915)">
      <g id="Group_2173" data-name="Group 2173" transform="translate(62.149 31.022)">
        <path id="Path_992" data-name="Path 992" d="M798.5,480.2c.142.028.728.17,1.561.4C799.228,480.38,798.642,480.238,798.5,480.2Z" transform="translate(-798.5 -480.2)" fill="#abffef"/>
      </g>
      <g id="Group_2177" data-name="Group 2177" transform="translate(18.639 52.05)">
        <g id="Group_2174" data-name="Group 2174">
          <path id="Path_993" data-name="Path 993" d="M304.025,591.3l2.677-.785s-.52,1.3-.917,2.251a6.261,6.261,0,1,1-4.8-2.27A6.354,6.354,0,0,1,304.025,591.3Z" transform="translate(-294.7 -590.5)" fill="#fc5449"/>
        </g>
        <g id="Group_2176" data-name="Group 2176" transform="translate(4.209 4.218)">
          <g id="Group_2175" data-name="Group 2175">
            <path id="Path_994" data-name="Path 994" d="M343.314,636.254v1.806H342.16v1.163h-1.806V638.06H339.2v-1.806h1.154V635.1h1.806v1.154Z" transform="translate(-339.2 -635.1)" fill="#fff"/>
          </g>
        </g>
      </g>
      <g id="Group_2192" data-name="Group 2192" transform="translate(0 0)">
        <g id="Group_2178" data-name="Group 2178">
          <path id="Path_995" data-name="Path 995" d="M215.894,237.419h-37.17A2.026,2.026,0,0,1,176.7,235.4V208.024A2.026,2.026,0,0,1,178.724,206h37.17a2.026,2.026,0,0,1,2.024,2.024V235.4A2.032,2.032,0,0,1,215.894,237.419Z" transform="translate(-176.7 -206)" fill="#4485fd"/>
        </g>
        <g id="Group_2179" data-name="Group 2179" transform="translate(3.919 17.497)">
          <path id="Path_996" data-name="Path 996" d="M236.074,400.462h-.019a.322.322,0,0,1-.3-.265l-1.428-6.573-.359,2.26a.336.336,0,0,1-.331.284H232.14L231,399.27a.326.326,0,0,1-.331.217.323.323,0,0,1-.3-.255l-1.3-5.8-1.428,2.951a.337.337,0,0,1-.3.189.308.308,0,0,1-.293-.2l-.454-1.021-1.286,3.906a.328.328,0,0,1-.634-.038L223.4,392.81l-1.939,7.406a.325.325,0,0,1-.331.246.342.342,0,0,1-.312-.274l-1.078-6.242-.955,3.452a.324.324,0,0,1-.407.227.317.317,0,0,1-.227-.407l1.352-4.871a.335.335,0,0,1,.331-.246.342.342,0,0,1,.312.274l1.069,6.185,1.92-7.32a.318.318,0,0,1,.331-.246.323.323,0,0,1,.312.265l1.315,6.583,1.163-3.528a.335.335,0,0,1,.293-.227.327.327,0,0,1,.322.2l.52,1.154,1.532-3.168a.351.351,0,0,1,.34-.189.333.333,0,0,1,.284.255l1.248,5.627.823-2.251a.327.327,0,0,1,.312-.217h1.447l.586-3.726a.343.343,0,0,1,.322-.284.327.327,0,0,1,.331.265l1.551,7.15,2.544-7.3a.327.327,0,0,1,.322-.217.345.345,0,0,1,.312.236l1.107,3.878h3.859l2.194-3.556a.332.332,0,0,1,.34-.151.346.346,0,0,1,.265.265l.9,5.069.246-3.074a.332.332,0,0,1,.624-.123l1.059,1.977h1.277a.331.331,0,0,1,0,.662h-1.475a.334.334,0,0,1-.293-.17l-.624-1.163-.369,4.53a.329.329,0,0,1-.653.028l-1.211-6.753-1.835,2.97a.342.342,0,0,1-.284.161h-4.294a.335.335,0,0,1-.322-.237l-.889-3.112-2.592,7.425A.307.307,0,0,1,236.074,400.462Z" transform="translate(-218.136 -390.994)" fill="#fff"/>
        </g>
        <g id="Group_2182" data-name="Group 2182" transform="translate(2.998 2.156)">
          <g id="Group_2180" data-name="Group 2180">
            <path id="Path_997" data-name="Path 997" d="M219.239,241.937h-9.061a1.776,1.776,0,0,1-1.778-1.778v-9.581a1.776,1.776,0,0,1,1.778-1.778h9.061a1.776,1.776,0,0,1,1.778,1.778v9.581A1.782,1.782,0,0,1,219.239,241.937Z" transform="translate(-208.4 -228.8)" fill="#fff"/>
          </g>
          <g id="Group_2181" data-name="Group 2181" transform="translate(2.121 2.736)">
            <path id="Path_998" data-name="Path 998" d="M238.493,258.583a2.346,2.346,0,0,1,0,3.32h0l-3.49,3.49-3.49-3.49a2.346,2.346,0,0,1,0-3.32l.17-.17a2.346,2.346,0,0,1,3.32,0h0a2.346,2.346,0,0,1,3.32,0Z" transform="translate(-230.825 -257.725)" fill="#fc5449"/>
          </g>
        </g>
        <g id="Group_2191" data-name="Group 2191" transform="translate(17.431 2.289)">
          <g id="Group_2183" data-name="Group 2183">
            <path id="Path_999" data-name="Path 999" d="M380.313,243.224H362.778A1.776,1.776,0,0,1,361,241.445v-9.467a1.776,1.776,0,0,1,1.778-1.778h17.535a1.776,1.776,0,0,1,1.778,1.778v9.458A1.778,1.778,0,0,1,380.313,243.224Z" transform="translate(-361 -230.2)" fill="#fff"/>
          </g>
          <g id="Group_2190" data-name="Group 2190" transform="translate(1.381 1.892)">
            <g id="Group_2184" data-name="Group 2184" transform="translate(0)">
              <path id="Path_1000" data-name="Path 1000" d="M393.371,250.692H375.846a.244.244,0,0,1-.246-.246h0a.244.244,0,0,1,.246-.246h17.526a.244.244,0,0,1,.246.246h0A.25.25,0,0,1,393.371,250.692Z" transform="translate(-375.6 -250.2)" fill="#080d18"/>
            </g>
            <g id="Group_2185" data-name="Group 2185" transform="translate(0 5.391)">
              <path id="Path_1001" data-name="Path 1001" d="M393.371,307.692H375.846a.244.244,0,0,1-.246-.246h0a.244.244,0,0,1,.246-.246h17.526a.244.244,0,0,1,.246.246h0A.25.25,0,0,1,393.371,307.692Z" transform="translate(-375.6 -307.2)" fill="#080d18"/>
            </g>
            <g id="Group_2186" data-name="Group 2186" transform="translate(0 1.882)">
              <path id="Path_1002" data-name="Path 1002" d="M384.2,270.592h-8.351a.244.244,0,0,1-.246-.246h0a.244.244,0,0,1,.246-.246H384.2a.244.244,0,0,1,.246.246h0A.244.244,0,0,1,384.2,270.592Z" transform="translate(-375.6 -270.1)" fill="#080d18"/>
            </g>
            <g id="Group_2187" data-name="Group 2187" transform="translate(0 3.783)">
              <path id="Path_1003" data-name="Path 1003" d="M382.807,290.692h-6.961a.244.244,0,0,1-.246-.246h0a.244.244,0,0,1,.246-.246h6.961a.244.244,0,0,1,.246.246h0A.233.233,0,0,1,382.807,290.692Z" transform="translate(-375.6 -290.2)" fill="#080d18"/>
            </g>
            <g id="Group_2188" data-name="Group 2188" transform="translate(9.411 1.882)">
              <path id="Path_1004" data-name="Path 1004" d="M483.7,270.592h-8.351a.244.244,0,0,1-.246-.246h0a.244.244,0,0,1,.246-.246H483.7a.244.244,0,0,1,.246.246h0A.238.238,0,0,1,483.7,270.592Z" transform="translate(-475.1 -270.1)" fill="#080d18"/>
            </g>
            <g id="Group_2189" data-name="Group 2189" transform="translate(8.068 3.783)">
              <path id="Path_1005" data-name="Path 1005" d="M469.5,290.692h-8.351a.244.244,0,0,1-.246-.246h0a.244.244,0,0,1,.246-.246H469.5a.244.244,0,0,1,.246.246h0A.233.233,0,0,1,469.5,290.692Z" transform="translate(-460.9 -290.2)" fill="#080d18"/>
            </g>
          </g>
        </g>
      </g>
      <g id="Group_2193" data-name="Group 2193" transform="translate(73.792 35.94)">
        <path id="Path_1006" data-name="Path 1006" d="M921.922,532.7a4.161,4.161,0,0,0-.322-.5C921.628,532.187,921.742,532.357,921.922,532.7Z" transform="translate(-921.6 -532.196)" fill="#528bf6"/>
      </g>
      <g id="Group_2198" data-name="Group 2198" transform="translate(71.139 15.71)">
        <g id="Group_2194" data-name="Group 2194">
          <path id="Path_1007" data-name="Path 1007" d="M864.194,321.425,863.4,324.1l2.26-.908a6.285,6.285,0,1,0-1.466-1.769Z" transform="translate(-863.4 -312.1)" fill="#fc5449"/>
        </g>
        <g id="Group_2197" data-name="Group 2197" transform="translate(3.372 4.448)">
          <g id="Group_2195" data-name="Group 2195" transform="translate(0 0.005)">
            <path id="Path_1008" data-name="Path 1008" d="M905.068,360.164a1.339,1.339,0,0,1-.123,1.031,1.363,1.363,0,0,1-.814.643l-3.367.965a1.338,1.338,0,0,1-1.665-.927,1.311,1.311,0,0,1,.123-1.021,1.362,1.362,0,0,1,.813-.643l3.367-.965A1.333,1.333,0,0,1,905.068,360.164Z" transform="translate(-899.048 -359.189)" fill="#fff"/>
          </g>
          <g id="Group_2196" data-name="Group 2196" transform="translate(2.663)">
            <path id="Path_1009" data-name="Path 1009" d="M930.558,360.114a1.339,1.339,0,0,1-.123,1.031,1.362,1.362,0,0,1-.813.643l-1.684.482-.738-2.6,1.683-.482A1.352,1.352,0,0,1,930.558,360.114Z" transform="translate(-927.2 -359.133)" fill="#f9ce19"/>
          </g>
        </g>
      </g>
      <g id="Group_2274" data-name="Group 2274" transform="translate(25.984 8.068)">
        <g id="Group_2227" data-name="Group 2227" transform="translate(22.43)">
          <g id="Group_2212" data-name="Group 2212" transform="translate(5.119 16.703)">
            <path id="Path_1016" data-name="Path 1016" d="M717.662,421.014l-6.252,5.448-4.01-4.824,1.929-.6-.057-.255-.426-2.138,3.367-2.421,2.97-2.128,1.125,6.185Z" transform="translate(-707.4 -414.1)" fill="#f4be9a"/>
          </g>
          <g id="Group_2213" data-name="Group 2213" transform="translate(6.566 17.478)">
            <path id="Path_1017" data-name="Path 1017" d="M729.027,422.3a6.429,6.429,0,0,1-5.883,5.911l-.444-2.138,3.518-2.421Z" transform="translate(-722.7 -422.3)" fill="#cc926a"/>
          </g>
          <g id="Group_2214" data-name="Group 2214" transform="translate(1.372 9.382)">
            <path id="Path_1018" data-name="Path 1018" d="M668.837,336.694a.325.325,0,0,0-.331.246,20.671,20.671,0,0,0-.6,7.141c.5,3.206,2.923,5.391,4.4,5.561s5.779-1.107,6.876-4.559c0,0,.984.776,2.355-.709s1.4-4.568.284-4.975a2.039,2.039,0,0,0-1.664.293.319.319,0,0,1-.473-.35l.407-1.665a.32.32,0,0,0-.293-.4Z" transform="translate(-667.786 -336.694)" fill="#f4be9a"/>
          </g>
          <g id="Group_2215" data-name="Group 2215">
            <path id="Path_1019" data-name="Path 1019" d="M654.527,246.456a8.73,8.73,0,0,0,6.431,1.182s-1.352.965-.965,1.305,3.717.2,5.41-1.154c0,0-.747,2.336.189,3.272,0,0,2.487-2.79,3.736-.681,0,0,2.346-2.289,1.8-4.445a2.473,2.473,0,0,0-2.317-2.109,5.781,5.781,0,0,0-1.542-2.932c-1.5-1.863-3.651-3.4-6.044-3.4a1.732,1.732,0,0,0-1.456.567,2.061,2.061,0,0,0,.057,1.835,5.51,5.51,0,0,0-2.97-.785,3.266,3.266,0,0,0-2.6,1.466,2.35,2.35,0,0,0,.321,2.856,1.158,1.158,0,0,0-1.3,1.031,1.819,1.819,0,0,0,.218.889C653.742,245.841,654.187,246.087,654.527,246.456Z" transform="translate(-653.276 -237.5)" fill="#080d18"/>
          </g>
          <g id="Group_2216" data-name="Group 2216" transform="translate(3.377 13.127)">
            <path id="Path_1020" data-name="Path 1020" d="M690.266,377.173c.028.5-.236.936-.586.955s-.662-.369-.7-.88.236-.936.586-.955S690.238,376.663,690.266,377.173Z" transform="translate(-688.978 -376.293)" fill="#080d18"/>
          </g>
          <g id="Group_2217" data-name="Group 2217" transform="translate(8.389 13.051)">
            <path id="Path_1021" data-name="Path 1021" d="M743.266,376.373c.029.5-.236.936-.586.955s-.662-.369-.7-.88.237-.936.586-.955S743.238,375.862,743.266,376.373Z" transform="translate(-741.978 -375.493)" fill="#080d18"/>
          </g>
          <g id="Group_2219" data-name="Group 2219" transform="translate(4.898 14.116)">
            <g id="Group_2218" data-name="Group 2218">
              <path id="Path_1022" data-name="Path 1022" d="M705.971,386.823c-.151.293-.3.577-.463.87a4.482,4.482,0,0,0-.4.832.935.935,0,0,0,.057.747.91.91,0,0,0,.681.378c.17.028.246-.227.076-.255-.218-.038-.454-.085-.549-.312a.922.922,0,0,1,.066-.671c.1-.236.237-.463.359-.69.132-.255.265-.5.4-.757.085-.161-.142-.3-.227-.142Z" transform="translate(-705.059 -386.752)" fill="#cc926a"/>
            </g>
          </g>
          <g id="Group_2221" data-name="Group 2221" transform="translate(13.063 13.252)">
            <g id="Group_2220" data-name="Group 2220">
              <path id="Path_1023" data-name="Path 1023" d="M791.656,380.154a3.026,3.026,0,0,1,.586-1.542c.284-.388.832-.889,1.353-.69.161.057.237-.2.076-.255-.605-.227-1.239.284-1.589.728a3.358,3.358,0,0,0-.69,1.769c-.019.161.246.161.265-.009Z" transform="translate(-791.39 -377.611)" fill="#080d18"/>
            </g>
          </g>
          <g id="Group_2223" data-name="Group 2223" transform="translate(13.421 14.204)">
            <g id="Group_2222" data-name="Group 2222">
              <path id="Path_1024" data-name="Path 1024" d="M795.431,388.148c.095-.132.227-.246.4-.18a.6.6,0,0,1,.312.331.79.79,0,0,1-.312.9.134.134,0,0,0,.189.189,1.033,1.033,0,0,0,.331-1.267.809.809,0,0,0-.52-.426.632.632,0,0,0-.634.322.127.127,0,0,0,.047.18.147.147,0,0,0,.189-.047Z" transform="translate(-795.173 -387.683)" fill="#080d18"/>
            </g>
          </g>
          <g id="Group_2224" data-name="Group 2224" transform="translate(2.887 11.593)">
            <path id="Path_1025" data-name="Path 1025" d="M686.1,360.888s-.218-.776-.795-.813-1.476.34-1.5.813Z" transform="translate(-683.8 -360.072)" fill="#080d18"/>
          </g>
          <g id="Group_2225" data-name="Group 2225" transform="translate(8.477 11.715)">
            <path id="Path_1026" data-name="Path 1026" d="M742.9,362.288s.123-.794.69-.9,1.513.17,1.589.634Z" transform="translate(-742.9 -361.368)" fill="#080d18"/>
          </g>
          <g id="Group_2226" data-name="Group 2226" transform="translate(5.909 17.579)">
            <path id="Path_1027" data-name="Path 1027" d="M718.374,423.4a.322.322,0,0,1,.293-.009.264.264,0,0,1,.095.132,1.7,1.7,0,0,1-.331,1.6,1.878,1.878,0,0,1-.463.482,1.382,1.382,0,0,1-1.57-.038c-.35-.246-1-1.267-.407-1.457C716.785,423.875,717.589,423.686,718.374,423.4Z" transform="translate(-715.749 -423.361)" fill="#fc5449"/>
          </g>
        </g>
        <g id="Group_2273" data-name="Group 2273" transform="translate(0 21.153)">
          <g id="Group_2228" data-name="Group 2228" transform="translate(19.992 36.607)">
            <rect id="Rectangle_4705" data-name="Rectangle 4705" width="19.427" height="12.399" fill="#080d18"/>
          </g>
          <path id="Path_1028" data-name="Path 1028" d="M691.471,478.509l-1.958,1.929a3.076,3.076,0,0,1-4.956-.917l-.227-.492-1.664,12.815L679.8,513.91h9.193l1.163-17.62L691.5,478.5h0Z" transform="translate(-654.862 -476.859)" fill="#fff"/>
          <g id="Group_2241" data-name="Group 2241">
            <g id="Group_2229" data-name="Group 2229">
              <path id="Path_1029" data-name="Path 1029" d="M425.884,466.6l-.331,1.854.293.435-4.076,3.3-.407-1.268c-4.285-2.724-5.391-5.514-5.221-5.854.142-.274.586-.227.738-.208a.113.113,0,0,1,.047.01c-.388-.312-.653-1.069-.473-1.362s1-.123,1-.123a1.1,1.1,0,0,1-.066-.1c-.132-.227-.407-.776-.18-1.107.293-.416,1.5.161,1.5.161s-.009-.028-.019-.066c-.085-.293-.359-1.39.832-1.059,1,.284,2.932,2.213,3.906,3.235-.17-1.059-.359-2.563.028-2.866.605-.463,1.4,1.56,2.081,3.121l.009.019.151.322A2.857,2.857,0,0,1,425.884,466.6Z" transform="translate(-416.125 -461.149)" fill="#f4be9a"/>
            </g>
            <g id="Group_2236" data-name="Group 2236" transform="translate(0.459 0.977)">
              <g id="Group_2231" data-name="Group 2231" transform="translate(1.929)">
                <g id="Group_2230" data-name="Group 2230">
                  <path id="Path_1030" data-name="Path 1030" d="M441.418,471.707l2.383,2.242c.123.123.312-.076.189-.189l-2.383-2.241a.134.134,0,0,0-.189.189Z" transform="translate(-441.378 -471.478)" fill="#cc926a"/>
                </g>
              </g>
              <g id="Group_2233" data-name="Group 2233" transform="translate(0.662 1.04)">
                <g id="Group_2232" data-name="Group 2232">
                  <path id="Path_1031" data-name="Path 1031" d="M428.018,482.707l2.383,2.241c.123.123.312-.076.189-.189l-2.383-2.242a.134.134,0,0,0-.189.189Z" transform="translate(-427.978 -482.478)" fill="#cc926a"/>
                </g>
              </g>
              <g id="Group_2235" data-name="Group 2235" transform="translate(0 2.478)">
                <g id="Group_2234" data-name="Group 2234">
                  <path id="Path_1032" data-name="Path 1032" d="M421.018,497.907c.662.615,1.315,1.239,1.977,1.854.123.123.312-.076.189-.189-.662-.615-1.315-1.239-1.977-1.854a.134.134,0,0,0-.189.189Z" transform="translate(-420.978 -497.678)" fill="#cc926a"/>
                </g>
              </g>
            </g>
            <g id="Group_2238" data-name="Group 2238" transform="translate(6.654 3.222)">
              <g id="Group_2237" data-name="Group 2237">
                <path id="Path_1033" data-name="Path 1033" d="M487.012,495.278a5.569,5.569,0,0,0-.284,4.076c.038.17.3.095.255-.076a5.3,5.3,0,0,1,.255-3.868c.085-.142-.142-.284-.227-.132Z" transform="translate(-486.481 -495.213)" fill="#cc926a"/>
              </g>
            </g>
            <g id="Group_2240" data-name="Group 2240" transform="translate(2.787 3.284)">
              <g id="Group_2239" data-name="Group 2239">
                <path id="Path_1034" data-name="Path 1034" d="M445.854,499.035a5.115,5.115,0,0,1,2.667-2.913c.161-.076.019-.3-.132-.236a5.376,5.376,0,0,0-2.79,3.074c-.066.17.2.236.255.076Z" transform="translate(-445.589 -495.874)" fill="#cc926a"/>
              </g>
            </g>
          </g>
          <g id="Group_2242" data-name="Group 2242" transform="translate(4.244 2.161)">
            <path id="Path_1035" data-name="Path 1035" d="M481.117,530.854,486.224,484s-1.258.378-2.866.946c-.1.038-.218.076-.331.123-2.336.842-5.249,2.043-6.129,3.055-1.551,1.778-4.322,10.016-4.322,10.016l-6.11-8.871L461,492.89s6.053,16.031,9.505,16.864,4.757-1,4.757-1l-3.1,19.814a1.88,1.88,0,0,0,1.523,2.279h7.434Z" transform="translate(-461 -484)" fill="#4485fd"/>
          </g>
          <g id="Group_2243" data-name="Group 2243" transform="translate(32.902 1.632)">
            <path id="Path_1036" data-name="Path 1036" d="M781.894,502.073c-.028.151-.066.3-.1.454-.719,1.636-3.773,2.374-4.426,2.516l-.123.028.009.132,1.145,18.367a2.591,2.591,0,0,1-1,2.213H764l.851-13.515.378-5.9.066-.965v-.028l.435-6.8.066-1.069.047-.444,1.873-18.642V478.4h.019c.142.038.719.18,1.56.4q.341.085.738.2c.161.047.321.094.492.142,3.244.917,8.03,2.648,8.985,3.916a5.083,5.083,0,0,1,.321.5c.123.246.274.577.444.984A30.612,30.612,0,0,1,781.894,502.073Z" transform="translate(-764 -478.4)" fill="#4485fd"/>
          </g>
          <g id="Group_2246" data-name="Group 2246" transform="translate(17.769 38.839)">
            <g id="Group_2244" data-name="Group 2244" transform="translate(20.136)">
              <rect id="Rectangle_4706" data-name="Rectangle 4706" width="6.327" height="0.946" fill="#080d18"/>
            </g>
            <g id="Group_2245" data-name="Group 2245" transform="translate(0 0.482)">
              <rect id="Rectangle_4707" data-name="Rectangle 4707" width="6.327" height="0.946" fill="#080d18"/>
            </g>
          </g>
          <g id="Group_2272" data-name="Group 2272" transform="translate(12.78 2.237)">
            <g id="Group_2248" data-name="Group 2248" transform="translate(30.444 3.918)">
              <g id="Group_2247" data-name="Group 2247">
                <path id="Path_1037" data-name="Path 1037" d="M874.874,526.421a10.01,10.01,0,0,0-1.106,2.856,17.547,17.547,0,0,0-.3,2.9q-.057,1.5-.057,3.008.014,2.908.284,5.8c.009.066.009.132.019.2a.1.1,0,0,1-.019.076.136.136,0,0,1-.189.038.117.117,0,0,1-.066-.1c0-.047-.01-.1-.01-.151q-.156-1.632-.227-3.263-.127-3.036.01-6.072a13.892,13.892,0,0,1,.378-2.866,9.962,9.962,0,0,1,1.05-2.544A.133.133,0,1,1,874.874,526.421Z" transform="translate(-873.137 -526.225)" fill="#080d18"/>
              </g>
            </g>
            <g id="Group_2250" data-name="Group 2250" transform="translate(21.795)">
              <g id="Group_2249" data-name="Group 2249">
                <path id="Path_1038" data-name="Path 1038" d="M788.313,486.748l-.454.369c-.662.529-1.324,1.059-1.977,1.589l-1.163.936c.095.161.2.312.3.473.52.823,1.04,1.655,1.57,2.478.331.52.662,1.04.984,1.56a.114.114,0,0,1,0,.132.033.033,0,0,0-.009.019c-.208.369-.454.728-.681,1.088-.473.747-.936,1.494-1.409,2.241-.539.861-1.088,1.721-1.627,2.582-.454.709-.9,1.428-1.343,2.137-.047.076-.085.142-.132.208l-.426.681a.127.127,0,0,1-.132.057.132.132,0,0,1-.1-.2c0-.009.01-.009.01-.019.047-.076.095-.161.142-.236.17-.284.369-.568.549-.851l.009-.009c.463-.738.936-1.485,1.4-2.223.539-.861,1.088-1.721,1.627-2.582.454-.709.9-1.428,1.343-2.137.17-.274.35-.549.52-.823-.1-.17-.208-.331-.322-.5-.52-.823-1.05-1.655-1.57-2.478-.331-.52-.662-1.04-.984-1.561a.143.143,0,0,1,.019-.161l.454-.369c.662-.53,1.324-1.059,1.977-1.589.378-.3.757-.605,1.126-.908a18.988,18.988,0,0,1-1.948-1.854c.161.047.321.095.492.142a20.485,20.485,0,0,0,1.759,1.627C788.37,486.6,788.37,486.7,788.313,486.748Z" transform="translate(-781.692 -484.8)" fill="#080d18"/>
              </g>
            </g>
            <g id="Group_2252" data-name="Group 2252" transform="translate(11.451 0.861)">
              <g id="Group_2251" data-name="Group 2251">
                <path id="Path_1039" data-name="Path 1039" d="M673.521,499.953l-.908.851a2.011,2.011,0,0,1,.085.255l.227.653c.227.653.463,1.315.69,1.967.265.757.53,1.523.8,2.289.217.624.435,1.258.662,1.882.095.265.18.53.274.785.057.161-.2.236-.255.066a.009.009,0,0,0-.01-.01c-.123-.322-.227-.643-.34-.965-.227-.653-.464-1.315-.69-1.967-.265-.766-.53-1.523-.794-2.289-.218-.624-.435-1.258-.662-1.882-.095-.265-.18-.53-.274-.785a.117.117,0,0,1,.038-.133c.123-.113.237-.227.359-.331.52-.482,1.031-.965,1.551-1.447l.9-.842c-.227-.369-.463-.728-.7-1.1-.123-.2-.246-.388-.369-.586a1.835,1.835,0,0,1-.3-.549,1.009,1.009,0,0,1,.132-.586c.085-.218.161-.445.246-.662.066-.18.133-.369.208-.549.114-.038.218-.076.331-.123-.085.236-.17.463-.255.7-.076.208-.151.416-.227.615a2.615,2.615,0,0,0-.1.293.462.462,0,0,0-.047.274.868.868,0,0,0,.151.255c.057.085.113.18.17.265.123.189.236.378.359.567.237.378.482.757.719,1.125a.143.143,0,0,1-.019.161c-.123.114-.236.227-.359.331C674.552,498.988,674.041,499.471,673.521,499.953Z" transform="translate(-672.322 -493.9)" fill="#080d18"/>
              </g>
            </g>
            <g id="Group_2254" data-name="Group 2254" transform="translate(7.934 4.887)">
              <g id="Group_2253" data-name="Group 2253">
                <path id="Path_1040" data-name="Path 1040" d="M635.35,536.61c-.095,1.617-.161,3.244-.189,4.861s-.038,3.225,0,4.843c.019.917.047,1.825.085,2.743.01.17.274.17.265,0-.066-1.617-.1-3.244-.1-4.861s.028-3.225.085-4.842c.038-.917.076-1.826.132-2.743.01-.18-.265-.18-.274,0Z" transform="translate(-635.136 -536.475)" fill="#080d18"/>
              </g>
            </g>
            <g id="Group_2257" data-name="Group 2257" transform="translate(0 12.74)">
              <g id="Group_2255" data-name="Group 2255">
                <path id="Path_1041" data-name="Path 1041" d="M567.21,619.5H552.6a1.343,1.343,0,0,0-1.277,1.768l5.854,17.819a1.352,1.352,0,0,0,1.277.927h14.613a1.343,1.343,0,0,0,1.277-1.769l-5.855-17.819A1.352,1.352,0,0,0,567.21,619.5Z" transform="translate(-551.25 -619.5)" fill="#080d18"/>
              </g>
              <g id="Group_2256" data-name="Group 2256" transform="translate(4.999)">
                <path id="Path_1042" data-name="Path 1042" d="M611.581,621.845h-6.129a.663.663,0,0,1-.624-.435l-.728-1.91h7.566l.549,1.428A.68.68,0,0,1,611.581,621.845Z" transform="translate(-604.1 -619.5)" fill="#e4eaef"/>
              </g>
            </g>
            <g id="Group_2271" data-name="Group 2271" transform="translate(13.549 18.243)">
              <g id="Group_2268" data-name="Group 2268" transform="translate(0 0.483)">
                <g id="Group_2258" data-name="Group 2258">
                  <path id="Path_1043" data-name="Path 1043" d="M705.434,689.96l-.132-.028-1.163-.265c-.473.237-.927.454-1.362.634-.142.057-.274.113-.407.17h-.009a15.367,15.367,0,0,1-2.157.681c-2.251.53-3.622.255-3.755.038a.511.511,0,0,1,.057-.529c.009-.01.009-.019.019-.029a1.683,1.683,0,0,1,.161-.218,1.046,1.046,0,0,1-.35.066,1.233,1.233,0,0,1-1.059-.359c-.114-.217.132-.586.293-.785a1.57,1.57,0,0,1,.113-.133,2.1,2.1,0,0,1-.756-.094.639.639,0,0,1-.4-.312c-.132-.274.227-.662.529-.927.076-.066.142-.114.2-.161l.17-.123s-.1-.019-.236-.057c-.028-.01-.066-.019-.095-.029a1.088,1.088,0,0,1-.454-.284c-.161-.17-.2-.426.095-.766a1.608,1.608,0,0,1,.123-.133,1.962,1.962,0,0,1,.388-.284,22.636,22.636,0,0,1,5.041-1.589.674.674,0,0,1,.113-.019.294.294,0,0,1,.066-.01l-.066-.17-.482-1.3-.057-.151h.009l1.428.142a2.566,2.566,0,0,1,1.428.615l.076.066.454.4.889.766.388-.019.133-.01Z" transform="translate(-694.501 -682.8)" fill="#f4be9a"/>
                </g>
                <g id="Group_2267" data-name="Group 2267" transform="translate(0.665 1.248)">
                  <g id="Group_2260" data-name="Group 2260" transform="translate(0 2.49)">
                    <g id="Group_2259" data-name="Group 2259">
                      <path id="Path_1044" data-name="Path 1044" d="M701.7,723.5c1.05-.3,2.1-.605,3.14-.917a.133.133,0,1,0-.076-.255c-1.05.3-2.1.605-3.14.917a.133.133,0,0,0,.076.255Z" transform="translate(-701.529 -722.316)" fill="#cc926a"/>
                    </g>
                  </g>
                  <g id="Group_2262" data-name="Group 2262" transform="translate(0.255 4.107)">
                    <g id="Group_2261" data-name="Group 2261">
                      <path id="Path_1045" data-name="Path 1045" d="M704.4,740.6c1.05-.3,2.1-.605,3.14-.917a.133.133,0,1,0-.076-.255c-1.05.3-2.1.605-3.14.917a.133.133,0,0,0,.076.255Z" transform="translate(-704.229 -739.416)" fill="#cc926a"/>
                    </g>
                  </g>
                  <g id="Group_2264" data-name="Group 2264" transform="translate(1.157 5.573)">
                    <g id="Group_2263" data-name="Group 2263">
                      <path id="Path_1046" data-name="Path 1046" d="M713.922,755.936c.87-.255,1.741-.5,2.6-.756a.133.133,0,1,0-.076-.256c-.87.256-1.74.5-2.6.757a.133.133,0,0,0,.076.255Z" transform="translate(-713.757 -754.916)" fill="#cc926a"/>
                    </g>
                  </g>
                  <g id="Group_2266" data-name="Group 2266" transform="translate(5.091)">
                    <g id="Group_2265" data-name="Group 2265">
                      <path id="Path_1047" data-name="Path 1047" d="M755.53,696.465a3.6,3.6,0,0,1,.946-.208.135.135,0,0,0,.132-.132c0-.066-.066-.142-.132-.133a4.186,4.186,0,0,0-1.021.218.142.142,0,0,0-.095.161.148.148,0,0,0,.17.095Z" transform="translate(-755.356 -695.991)" fill="#cc926a"/>
                    </g>
                  </g>
                </g>
              </g>
              <g id="Group_2270" data-name="Group 2270" transform="translate(9.986)">
                <g id="Group_2269" data-name="Group 2269">
                  <path id="Path_1048" data-name="Path 1048" d="M810.714,677.956a1.875,1.875,0,0,0-.227.019,22.627,22.627,0,0,0-2.251.3c-.227.038-.464.085-.69.123a1.311,1.311,0,0,0-.189.038c-.615.114-1.22.236-1.825.369-.861.18-1.721.378-2.582.577-.643.151-1.3.3-1.939.464-.217.057-.435.1-.653.161.066.416.123.832.19,1.248.246,1.608.482,3.206.728,4.814.217-.009.435-.019.652-.038,1.267-.076,2.535-.151,3.8-.246,1.381-.1,2.761-.208,4.133-.4a.141.141,0,0,1,.161.1.108.108,0,0,1-.094.151H809.9c-.719.1-1.447.17-2.166.236-1.457.133-2.923.237-4.379.331-.728.047-1.466.095-2.194.123a.146.146,0,0,1-.132-.095l-.142-.936c-.019-.151-.047-.3-.066-.454-.237-1.57-.473-3.13-.709-4.7-.009-.076-.019-.151-.028-.218a.148.148,0,0,1,.094-.17h.01c.312-.094.634-.161.946-.236.681-.17,1.371-.331,2.061-.492.88-.2,1.759-.4,2.639-.577.482-.1.955-.2,1.438-.284.085-.019.18-.028.265-.047.322-.057.643-.113.974-.17a21.37,21.37,0,0,1,2.194-.265C810.894,677.672,810.884,677.947,810.714,677.956Z" transform="translate(-800.081 -677.69)" fill="#080d18"/>
                </g>
              </g>
            </g>
          </g>
        </g>
      </g>
    </g>
  </g>
</svg>
