<svg xmlns="http://www.w3.org/2000/svg" width="91" height="16" viewBox="0 0 91 16">
  <g id="Group_2022" data-name="Group 2022" transform="translate(-0.072)">
    <rect id="Rectangle_3993" data-name="Rectangle 3993" width="91" height="16" rx="4" transform="translate(0.072)" fill="#fff"/>
    <g id="Group_1028" data-name="Group 1028" transform="translate(6.17 1.709)">
      <text id="In-person_consult" data-name="In-person consult" transform="translate(9.902 9.291)" fill="#9a40ff" font-size="8" font-family="Poppins-Regular, Poppins" letter-spacing="0em"><tspan x="0" y="0">In-person consult</tspan></text>
    </g>
    <g id="patient" transform="translate(-45.623 489.604)">
      <path id="Path_977" data-name="Path 977" d="M144.121-485.6a2.19,2.19,0,0,0-1.844,1.907,3.675,3.675,0,0,0,1.267,2.916,1.335,1.335,0,0,0,1.668.084,3.669,3.669,0,0,0,1.386-2.521,2.18,2.18,0,0,0-1.64-2.345,1.693,1.693,0,0,0-.464-.046C144.32-485.606,144.154-485.6,144.121-485.6Z" transform="translate(-90.798)" fill="#cea1ff"/>
      <path id="Path_978" data-name="Path 978" d="M51.929-232.987a3.594,3.594,0,0,0-.612.168,2.63,2.63,0,0,0-1.479,1.544,2.286,2.286,0,0,0-.141.873,1.507,1.507,0,0,0,.04.464c.138.506.48.757,1.166.858.241.036,5.233.036,5.473,0,.688-.1,1.028-.352,1.166-.858a2.69,2.69,0,0,0,0-.975,2.6,2.6,0,0,0-.7-1.315,2.482,2.482,0,0,0-.864-.585,3.441,3.441,0,0,0-.657-.18l-.086-.01-.034.094a1.106,1.106,0,0,1-.113.212,5.735,5.735,0,0,1-.768.793,8.329,8.329,0,0,1-.68.545,3.138,3.138,0,0,1-.281-.212,4.406,4.406,0,0,1-1.28-1.338c-.021-.059-.044-.092-.063-.092Zm3.935,1.642a1.78,1.78,0,0,1,.011.248v.218h.218a1.78,1.78,0,0,1,.248.011,1.043,1.043,0,0,1,0,.531,1.782,1.782,0,0,1-.248.011h-.218v.224a1.3,1.3,0,0,1-.015.25c-.013.017-.08.023-.273.019l-.256-.006-.006-.245-.006-.243h-.237c-.216,0-.239,0-.258-.036a1.085,1.085,0,0,1-.019-.241,1.084,1.084,0,0,1,.019-.241c.019-.033.042-.036.258-.036h.239v-.235a1.244,1.244,0,0,1,.013-.248,1.412,1.412,0,0,1,.266-.013C55.812-231.376,55.854-231.372,55.864-231.345Z" transform="translate(0 -247.777)" fill="#a04aff"/>
    </g>
  </g>
</svg>
