<svg xmlns="http://www.w3.org/2000/svg" width="13.279" height="14.755" viewBox="0 0 13.279 14.755">
  <path id="Icon_material-event-note" data-name="Icon material-event-note" d="M14.828,8.14H7.451V9.615h7.377ZM16.3,2.975h-.738V1.5H14.091V2.975h-5.9V1.5H6.713V2.975H5.975A1.469,1.469,0,0,0,4.507,4.451L4.5,14.779a1.475,1.475,0,0,0,1.475,1.475H16.3a1.48,1.48,0,0,0,1.475-1.475V4.451A1.48,1.48,0,0,0,16.3,2.975Zm0,11.8H5.975V6.664H16.3Zm-3.689-3.689H7.451v1.475h5.164Z" transform="translate(-4.5 -1.5)" fill="#4485fd"/>
</svg>
